<mxfile host="app.diagrams.net" modified="2022-02-24T20:21:01.599Z" agent="5.0 (X11)" etag="acI-OD44-TuajlImD0y9" version="16.6.3" type="github">
  <diagram id="aNHu1ySQU43lHUJdWZu7" name="Page-1">
    <mxGraphModel dx="1400" dy="747" grid="1" gridSize="10" guides="1" tooltips="1" connect="1" arrows="1" fold="1" page="1" pageScale="1" pageWidth="413" pageHeight="291" math="0" shadow="0">
      <root>
        <mxCell id="0" />
        <mxCell id="1" parent="0" />
        <mxCell id="8ExyoGv-klVvdCd_kYWT-1" value="Internet" style="ellipse;shape=cloud;whiteSpace=wrap;html=1;" vertex="1" parent="1">
          <mxGeometry x="200" y="140" width="405" height="230" as="geometry" />
        </mxCell>
        <mxCell id="8ExyoGv-klVvdCd_kYWT-10" style="edgeStyle=orthogonalEdgeStyle;rounded=0;orthogonalLoop=1;jettySize=auto;html=1;" edge="1" parent="1" source="8ExyoGv-klVvdCd_kYWT-2" target="8ExyoGv-klVvdCd_kYWT-4">
          <mxGeometry relative="1" as="geometry">
            <Array as="points">
              <mxPoint x="403" y="300" />
            </Array>
          </mxGeometry>
        </mxCell>
        <mxCell id="8ExyoGv-klVvdCd_kYWT-2" value="&lt;div&gt;Client&lt;/div&gt;" style="aspect=fixed;perimeter=ellipsePerimeter;html=1;align=center;shadow=0;dashed=0;spacingTop=3;image;image=img/lib/active_directory/laptop_client.svg;" vertex="1" parent="1">
          <mxGeometry x="160" y="250" width="45" height="50" as="geometry" />
        </mxCell>
        <mxCell id="8ExyoGv-klVvdCd_kYWT-4" value="Home network" style="points=[];aspect=fixed;html=1;align=center;shadow=0;dashed=0;image;image=img/lib/allied_telesis/computer_and_terminals/Server_Desktop.svg;" vertex="1" parent="1">
          <mxGeometry x="381.2" y="390" width="42.599999999999994" height="54" as="geometry" />
        </mxCell>
        <mxCell id="8ExyoGv-klVvdCd_kYWT-6" value="vpn gateway" style="points=[];aspect=fixed;html=1;align=center;shadow=0;dashed=0;image;image=img/lib/allied_telesis/storage/Datacenter_Server_Half_Rack_ToR.svg;" vertex="1" parent="1">
          <mxGeometry x="605" y="260" width="53.87" height="70" as="geometry" />
        </mxCell>
        <mxCell id="8ExyoGv-klVvdCd_kYWT-18" value="" style="edgeStyle=elbowEdgeStyle;elbow=vertical;endArrow=classic;html=1;rounded=0;exitX=0.664;exitY=-0.093;exitDx=0;exitDy=0;exitPerimeter=0;" edge="1" parent="1" source="8ExyoGv-klVvdCd_kYWT-4" target="8ExyoGv-klVvdCd_kYWT-6">
          <mxGeometry width="50" height="50" relative="1" as="geometry">
            <mxPoint x="430" y="440" as="sourcePoint" />
            <mxPoint x="580" y="300" as="targetPoint" />
            <Array as="points">
              <mxPoint x="500" y="300" />
            </Array>
          </mxGeometry>
        </mxCell>
        <mxCell id="8ExyoGv-klVvdCd_kYWT-19" value="" style="edgeStyle=segmentEdgeStyle;endArrow=classic;html=1;rounded=0;exitX=-0.074;exitY=0.357;exitDx=0;exitDy=0;exitPerimeter=0;" edge="1" parent="1" source="8ExyoGv-klVvdCd_kYWT-6">
          <mxGeometry width="50" height="50" relative="1" as="geometry">
            <mxPoint x="430" y="440" as="sourcePoint" />
            <mxPoint x="490" y="285" as="targetPoint" />
          </mxGeometry>
        </mxCell>
      </root>
    </mxGraphModel>
  </diagram>
</mxfile>
